<svg xmlns="http://www.w3.org/2000/svg" width="1440" height="835" viewBox="0 0 1440 835" role="img" aria-labelledby="title desc">
<title id="title">Verification: scope, meaning and citation</title>
<desc id="desc">Three implemented verification contexts. Model relevance judgments, deterministic contract checks and exact citation matching are distinct evidence.</desc>
<defs><marker id="arrow" markerWidth="8" markerHeight="8" refX="7" refY="4" orient="auto"><path d="M0 0L8 4L0 8" fill="#53808d"/></marker></defs>
<rect width="1440" height="835" rx="18" fill="#f3f6fa"/>
<g font-family="Arial, sans-serif">
<text x="40" y="52" font-size="32" font-weight="700" fill="#142b43">Verification: scope, meaning and citation</text>
<text x="40" y="87" font-size="19" fill="#536477">Three implemented verification contexts</text>
<text x="40" y="131" font-size="17" font-weight="700" fill="#18796e">PRODUCTION CONSULTATION</text>
<g data-node="n0_0"><rect x="40.0" y="153" width="316.0" height="134" rx="10" fill="#fff" stroke="#c8d5df"/>
<rect x="40.0" y="153" width="5" height="134" rx="2" fill="#18796e"/>
<text x="59.0" y="185" font-size="21" font-weight="700" fill="#17314b">Retrieved material</text>
<text x="59.0" y="218" font-size="18" fill="#4a6075">Official rows / documents</text>
<text x="59.0" y="242" font-size="18" fill="#4a6075">Source / time / crop</text>
</g>
<path d="M358.0 220 H383.0" stroke="#53808d" stroke-width="2" fill="none" marker-end="url(#arrow)"/>
<g data-node="n0_1"><rect x="388.0" y="153" width="316.0" height="134" rx="10" fill="#fff" stroke="#c8d5df"/>
<rect x="388.0" y="153" width="5" height="134" rx="2" fill="#18796e"/>
<text x="407.0" y="185" font-size="21" font-weight="700" fill="#17314b">Evidence gate</text>
<text x="407.0" y="218" font-size="18" fill="#4a6075">Scope and domain rules</text>
<text x="407.0" y="242" font-size="18" fill="#4a6075">Preserve official values</text>
</g>
<path d="M706.0 220 H731.0" stroke="#53808d" stroke-width="2" fill="none" marker-end="url(#arrow)"/>
<g data-node="n0_2"><rect x="736.0" y="153" width="316.0" height="134" rx="10" fill="#fff" stroke="#c8d5df"/>
<rect x="736.0" y="153" width="5" height="134" rx="2" fill="#18796e"/>
<text x="755.0" y="185" font-size="21" font-weight="700" fill="#17314b">Response verifier</text>
<text x="755.0" y="218" font-size="18" fill="#4a6075">Answer and constraints</text>
<text x="755.0" y="242" font-size="18" fill="#4a6075">Violation / repair checks</text>
</g>
<path d="M1054.0 220 H1079.0" stroke="#53808d" stroke-width="2" fill="none" marker-end="url(#arrow)"/>
<g data-node="n0_3"><rect x="1084.0" y="153" width="316.0" height="134" rx="10" fill="#fff" stroke="#c8d5df"/>
<rect x="1084.0" y="153" width="5" height="134" rx="2" fill="#18796e"/>
<text x="1103.0" y="185" font-size="21" font-weight="700" fill="#17314b">Checked response</text>
<text x="1103.0" y="218" font-size="18" fill="#4a6075">Repair and recheck</text>
<text x="1103.0" y="242" font-size="18" fill="#4a6075">Trace / quality issue</text>
</g>
<text x="40" y="346" font-size="17" font-weight="700" fill="#375c98">SCIENTIFIC ADMIN RUNTIME</text>
<g data-node="n1_0"><rect x="40.0" y="368" width="316.0" height="134" rx="10" fill="#fff" stroke="#c8d5df"/>
<rect x="40.0" y="368" width="5" height="134" rx="2" fill="#375c98"/>
<text x="59.0" y="400" font-size="21" font-weight="700" fill="#17314b">Goal + observations</text>
<text x="59.0" y="433" font-size="18" fill="#4a6075">Run criteria</text>
<text x="59.0" y="457" font-size="18" fill="#4a6075">Retrieved excerpts</text>
</g>
<path d="M358.0 435 H383.0" stroke="#53808d" stroke-width="2" fill="none" marker-end="url(#arrow)"/>
<g data-node="n1_1"><rect x="388.0" y="368" width="316.0" height="134" rx="10" fill="#fff" stroke="#c8d5df"/>
<rect x="388.0" y="368" width="5" height="134" rx="2" fill="#375c98"/>
<text x="407.0" y="400" font-size="21" font-weight="700" fill="#17314b">Model review</text>
<text x="407.0" y="433" font-size="18" fill="#4a6075">Criterion coverage</text>
<text x="407.0" y="457" font-size="18" fill="#4a6075">Choose evidence/span IDs</text>
</g>
<path d="M706.0 435 H731.0" stroke="#53808d" stroke-width="2" fill="none" marker-end="url(#arrow)"/>
<g data-node="n1_2"><rect x="736.0" y="368" width="316.0" height="134" rx="10" fill="#fff" stroke="#c8d5df"/>
<rect x="736.0" y="368" width="5" height="134" rx="2" fill="#375c98"/>
<text x="755.0" y="400" font-size="21" font-weight="700" fill="#17314b">Server validation</text>
<text x="755.0" y="433" font-size="18" fill="#4a6075">Known IDs / exact quote</text>
<text x="755.0" y="457" font-size="18" fill="#4a6075">Original text alignment</text>
</g>
<path d="M1054.0 435 H1079.0" stroke="#53808d" stroke-width="2" fill="none" marker-end="url(#arrow)"/>
<g data-node="n1_3"><rect x="1084.0" y="368" width="316.0" height="134" rx="10" fill="#fff" stroke="#c8d5df"/>
<rect x="1084.0" y="368" width="5" height="134" rx="2" fill="#375c98"/>
<text x="1103.0" y="400" font-size="21" font-weight="700" fill="#17314b">Selected excerpts</text>
<text x="1103.0" y="433" font-size="18" fill="#4a6075">Accepted evidence only</text>
<text x="1103.0" y="457" font-size="18" fill="#4a6075">Stored model verdict</text>
</g>
<text x="40" y="561" font-size="17" font-weight="700" fill="#7a5899">PUBLIC CORE</text>
<g data-node="n2_0"><rect x="40.0" y="583" width="316.0" height="134" rx="10" fill="#fff" stroke="#c8d5df"/>
<rect x="40.0" y="583" width="5" height="134" rx="2" fill="#7a5899"/>
<text x="59.0" y="615" font-size="21" font-weight="700" fill="#17314b">Need + evidence</text>
<text x="59.0" y="648" font-size="18" fill="#4a6075">Typed synthetic records</text>
<text x="59.0" y="672" font-size="18" fill="#4a6075">Date / subject / metric</text>
</g>
<path d="M358.0 650 H383.0" stroke="#53808d" stroke-width="2" fill="none" marker-end="url(#arrow)"/>
<g data-node="n2_1"><rect x="388.0" y="583" width="316.0" height="134" rx="10" fill="#fff" stroke="#c8d5df"/>
<rect x="388.0" y="583" width="5" height="134" rx="2" fill="#7a5899"/>
<text x="407.0" y="615" font-size="21" font-weight="700" fill="#17314b">Structured claim</text>
<text x="407.0" y="648" font-size="18" fill="#4a6075">Value / unit / scope</text>
<text x="407.0" y="672" font-size="18" fill="#4a6075">Conflict and freshness</text>
</g>
<path d="M706.0 650 H731.0" stroke="#53808d" stroke-width="2" fill="none" marker-end="url(#arrow)"/>
<g data-node="n2_2"><rect x="736.0" y="583" width="316.0" height="134" rx="10" fill="#fff" stroke="#c8d5df"/>
<rect x="736.0" y="583" width="5" height="134" rx="2" fill="#7a5899"/>
<text x="755.0" y="615" font-size="21" font-weight="700" fill="#17314b">Citation validation</text>
<text x="755.0" y="648" font-size="18" fill="#4a6075">Exact source span</text>
<text x="755.0" y="672" font-size="18" fill="#4a6075">Source and claim hash</text>
</g>
<path d="M1054.0 650 H1079.0" stroke="#53808d" stroke-width="2" fill="none" marker-end="url(#arrow)"/>
<g data-node="n2_3"><rect x="1084.0" y="583" width="316.0" height="134" rx="10" fill="#fff" stroke="#c8d5df"/>
<rect x="1084.0" y="583" width="5" height="134" rx="2" fill="#7a5899"/>
<text x="1103.0" y="615" font-size="21" font-weight="700" fill="#17314b">Accept or abstain</text>
<text x="1103.0" y="648" font-size="18" fill="#4a6075">All required claims</text>
<text x="1103.0" y="672" font-size="18" fill="#4a6075">Provenance verdict</text>
</g>
<text x="40" y="789" font-size="18" fill="#536477">Model relevance judgments, deterministic contract checks and exact citation matching are distinct evidence.</text>
</g>
</svg>
